<svg width="40" height="40" viewBox="0 0 40 40" fill="none" xmlns="http://www.w3.org/2000/svg">
<rect width="40" height="40" rx="8" fill="#6047B0" fill-opacity="0.1"/>
<path d="M25.3332 29.6C24.2016 29.6 23.1164 29.1505 22.3162 28.3503C21.5161 27.5502 21.0666 26.4649 21.0666 25.3333V12.5333C21.0666 11.9675 21.2913 11.4249 21.6914 11.0248C22.0915 10.6248 22.6341 10.4 23.1999 10.4H27.4666C28.0324 10.4 28.575 10.6248 28.9751 11.0248C29.3751 11.4249 29.5999 11.9675 29.5999 12.5333V25.3333C29.5999 26.4649 29.1504 27.5502 28.3502 28.3503C27.5501 29.1505 26.4648 29.6 25.3332 29.6ZM25.3332 29.6H12.5332C11.9674 29.6 11.4248 29.3752 11.0247 28.9752C10.6247 28.5751 10.3999 28.0325 10.3999 27.4667V23.2C10.3999 22.6342 10.6247 22.0916 11.0247 21.6915C11.4248 21.2914 11.9674 21.0667 12.5332 21.0667H14.9866M21.0666 15.04L18.9332 12.9067C18.5332 12.5067 17.9907 12.2821 17.425 12.2821C16.8593 12.2821 16.3168 12.5067 15.9167 12.9067L12.9002 15.9232C12.5002 16.3233 12.2756 16.8658 12.2756 17.4315C12.2756 17.9972 12.5002 18.5397 12.9002 18.9397L22.5002 28.5397M25.3332 25.3333V25.344" stroke="#6047B0" stroke-width="2" stroke-linecap="round" stroke-linejoin="round"/>
</svg>
