<svg width="40" height="40" viewBox="0 0 40 40" fill="none" xmlns="http://www.w3.org/2000/svg">
<rect width="40" height="40" rx="8" fill="#D594EA" fill-opacity="0.1"/>
<path d="M18.8909 11.1721C19.2718 10.1426 20.728 10.1426 21.1089 11.1721L23.005 16.2963C23.1248 16.6199 23.38 16.8751 23.7036 16.9949L28.8278 18.891C29.8573 19.2719 29.8573 20.728 28.8278 21.109L23.7036 23.0051C23.38 23.1249 23.1248 23.3801 23.005 23.7037L21.1089 28.8279C20.728 29.8574 19.2719 29.8574 18.8909 28.8279L16.9948 23.7037C16.875 23.3801 16.6198 23.1249 16.2962 23.0051L11.172 21.109C10.1425 20.728 10.1425 19.2719 11.172 18.891L16.2962 16.9949C16.6198 16.8751 16.875 16.6199 16.9948 16.2963L18.8909 11.1721Z" stroke="#D594EA" stroke-width="2" stroke-linejoin="round"/>
</svg>
