<svg width="24" height="25" viewBox="0 0 24 25" fill="none" xmlns="http://www.w3.org/2000/svg">
<path d="M17.3334 22.5013C16.2018 22.5013 15.1165 22.0517 14.3164 21.2516C13.5162 20.4514 13.0667 19.3662 13.0667 18.2346V5.4346C13.0667 4.86881 13.2915 4.32619 13.6915 3.92611C14.0916 3.52603 14.6342 3.30127 15.2 3.30127H19.4667C20.0325 3.30127 20.5751 3.52603 20.9752 3.92611C21.3753 4.32619 21.6 4.86881 21.6 5.4346V18.2346C21.6 19.3662 21.1505 20.4514 20.3503 21.2516C19.5502 22.0517 18.4649 22.5013 17.3334 22.5013ZM17.3334 22.5013H4.53336C3.96756 22.5013 3.42494 22.2765 3.02486 21.8764C2.62479 21.4763 2.40002 20.9337 2.40002 20.3679V16.1013C2.40002 15.5355 2.62479 14.9929 3.02486 14.5928C3.42494 14.1927 3.96756 13.9679 4.53336 13.9679H6.98669M13.0667 7.94127L10.9334 5.80794C10.5333 5.408 9.99077 5.18332 9.42509 5.18332C8.85941 5.18332 8.31688 5.408 7.91682 5.80794L4.90029 8.82447C4.50035 9.22453 4.27568 9.76705 4.27568 10.3327C4.27568 10.8984 4.50035 11.4409 4.90029 11.841L14.5003 21.441M17.3334 18.2346V18.2453" stroke="#865EBD" stroke-width="2" stroke-linecap="round" stroke-linejoin="round"/>
</svg>
