<svg width="24" height="25" viewBox="0 0 24 25" fill="none" xmlns="http://www.w3.org/2000/svg">
<path d="M10.891 4.07339C11.272 3.0439 12.7281 3.04389 13.109 4.07339L15.0051 9.19753C15.1249 9.5212 15.3801 9.7764 15.7038 9.89617L20.8279 11.7923C21.8574 12.1732 21.8574 13.6293 20.8279 14.0103L15.7038 15.9064C15.3801 16.0261 15.1249 16.2813 15.0051 16.605L13.109 21.7291C12.7281 22.7586 11.272 22.7586 10.891 21.7291L8.99492 16.605C8.87515 16.2813 8.61996 16.0261 8.29629 15.9064L3.17215 14.0103C2.14265 13.6293 2.14265 12.1732 3.17215 11.7923L8.29629 9.89617C8.61996 9.7764 8.87515 9.5212 8.99492 9.19753L10.891 4.07339Z" stroke="#865EBD" stroke-width="2" stroke-linejoin="round"/>
</svg>
