<svg width="24" height="25" viewBox="0 0 24 25" fill="none" xmlns="http://www.w3.org/2000/svg">
<path d="M2.40002 19.1181C3.49867 17.2856 5.90654 16.0314 9.66314 16.0314C13.4197 16.0314 15.8276 17.2856 16.9263 19.1181M17.6213 14.6418C19.6106 15.6365 20.6053 16.6312 21.6 18.6206M15.5522 7.03884C16.4883 7.5424 17.1246 8.53116 17.1246 9.66855C17.1246 10.7731 16.5246 11.7374 15.6326 12.2534M12.6472 9.66852C12.6472 11.3166 11.3112 12.6526 9.66314 12.6526C8.01509 12.6526 6.67907 11.3166 6.67907 9.66852C6.67907 8.02046 8.01509 6.68445 9.66314 6.68445C11.3112 6.68445 12.6472 8.02046 12.6472 9.66852Z" stroke="#865EBD" stroke-width="2" stroke-linecap="round"/>
</svg>
